<svg width="68" height="64" viewBox="0 0 68 64" fill="none" xmlns="http://www.w3.org/2000/svg">
<g clip-path="url(#clip0_512_4094)">
<rect width="48" height="48" transform="translate(10)" fill="white"/>
<path d="M58 0H10V48H58V0Z" fill="white"/>
<path d="M19.6 0H10V48H19.6V0Z" fill="#2C2C2C"/>
<path d="M38.8 0H29.2V19.2H38.8V0Z" fill="#2C2C2C"/>
<path d="M38.8 38.4H29.2V48H38.8V38.4Z" fill="#2C2C2C"/>
<path d="M58 0H48.4V48H58V0Z" fill="#2C2C2C"/>
</g>
<path d="M3.70508 63L1.64258 56.2793H1.58984C1.59766 56.4395 1.60938 56.6816 1.625 57.0059C1.64453 57.3262 1.66211 57.668 1.67773 58.0312C1.69336 58.3945 1.70117 58.7227 1.70117 59.0156V63H0.078125V54.4336H2.55078L4.57812 60.9844H4.61328L6.76367 54.4336H9.23633V63H7.54297V58.9453C7.54297 58.6758 7.54688 58.3652 7.55469 58.0137C7.56641 57.6621 7.58008 57.3281 7.5957 57.0117C7.61133 56.6914 7.62305 56.4512 7.63086 56.291H7.57812L5.36914 63H3.70508ZM15.0254 63L12.9629 56.2793H12.9102C12.918 56.4395 12.9297 56.6816 12.9453 57.0059C12.9648 57.3262 12.9824 57.668 12.998 58.0312C13.0137 58.3945 13.0215 58.7227 13.0215 59.0156V63H11.3984V54.4336H13.8711L15.8984 60.9844H15.9336L18.084 54.4336H20.5566V63H18.8633V58.9453C18.8633 58.6758 18.8672 58.3652 18.875 58.0137C18.8867 57.6621 18.9004 57.3281 18.916 57.0117C18.9316 56.6914 18.9434 56.4512 18.9512 56.291H18.8984L16.6895 63H15.0254ZM22.7188 63V54.4336H24.5352V61.5H28.0098V63H22.7188ZM34.748 63L34.127 60.9609H31.0039L30.3828 63H28.4258L31.4492 54.3984H33.6699L36.7051 63H34.748ZM33.6934 59.4375L33.0723 57.4453C33.0332 57.3125 32.9805 57.1426 32.9141 56.9355C32.8516 56.7246 32.7871 56.5117 32.7207 56.2969C32.6582 56.0781 32.6074 55.8887 32.5684 55.7285C32.5293 55.8887 32.4746 56.0879 32.4043 56.3262C32.3379 56.5605 32.2734 56.7832 32.2109 56.9941C32.1484 57.2051 32.1035 57.3555 32.0762 57.4453L31.4609 59.4375H33.6934ZM37.7891 54.4336H40.4551C41.5957 54.4336 42.459 54.5938 43.0449 54.9141C43.6309 55.2344 43.9238 55.7969 43.9238 56.6016C43.9238 56.9258 43.8711 57.2188 43.7656 57.4805C43.6641 57.7422 43.5156 57.957 43.3203 58.125C43.125 58.293 42.8867 58.4023 42.6055 58.4531V58.5117C42.8906 58.5703 43.1484 58.6719 43.3789 58.8164C43.6094 58.957 43.793 59.1641 43.9297 59.4375C44.0703 59.707 44.1406 60.0664 44.1406 60.5156C44.1406 61.0352 44.0137 61.4805 43.7598 61.8516C43.5059 62.2227 43.1426 62.5078 42.6699 62.707C42.2012 62.9023 41.6426 63 40.9941 63H37.7891V54.4336ZM39.6055 57.8262H40.6602C41.1875 57.8262 41.5527 57.7441 41.7559 57.5801C41.959 57.4121 42.0605 57.166 42.0605 56.8418C42.0605 56.5137 41.9395 56.2793 41.6973 56.1387C41.459 55.9941 41.0801 55.9219 40.5605 55.9219H39.6055V57.8262ZM39.6055 59.2676V61.5H40.7891C41.3359 61.5 41.7168 61.3945 41.9316 61.1836C42.1465 60.9727 42.2539 60.6895 42.2539 60.334C42.2539 60.123 42.207 59.9375 42.1133 59.7773C42.0195 59.6172 41.8613 59.4922 41.6387 59.4023C41.4199 59.3125 41.1172 59.2676 40.7305 59.2676H39.6055ZM55.9414 54.4336V59.9766C55.9414 60.5664 55.8105 61.0996 55.5488 61.5762C55.291 62.0488 54.8984 62.4238 54.3711 62.7012C53.8477 62.9785 53.1875 63.1172 52.3906 63.1172C51.2578 63.1172 50.3945 62.8281 49.8008 62.25C49.207 61.6719 48.9102 60.9062 48.9102 59.9531V54.4336H50.7207V59.6777C50.7207 60.3848 50.8652 60.8809 51.1543 61.166C51.4434 61.4512 51.8711 61.5938 52.4375 61.5938C52.8359 61.5938 53.1582 61.5254 53.4043 61.3887C53.6543 61.252 53.8379 61.041 53.9551 60.7559C54.0723 60.4707 54.1309 60.1074 54.1309 59.666V54.4336H55.9414ZM58.0391 63V54.4336H59.8555V63H58.0391ZM65.3164 63H63.5V55.9453H61.1738V54.4336H67.6426V55.9453H65.3164V63Z" fill="#2C2C2C"/>
<defs>
<clipPath id="clip0_512_4094">
<rect width="48" height="48" fill="white" transform="translate(10)"/>
</clipPath>
</defs>
</svg>